<?xml version="1.0" encoding="UTF-8"?>
<svg version="1.1" xmlns="http://www.w3.org/2000/svg" width="64" height="64">
<path d="M0 0 C2.00698975 1.3227887 4.00591923 2.65783025 6 4 C11.899921 6.35587123 17.74980077 7.37518195 24.06640625 7.7890625 C26 8 26 8 27 9 C27.1315419 25.25857824 22.02858148 43.64880266 11 56 C8.4140625 58.23828125 8.4140625 58.23828125 5.625 60.3125 C4.70976563 61.00988281 3.79453125 61.70726562 2.8515625 62.42578125 C-0.50747296 64.28015288 -2.21861112 64.5585581 -6 64 C-18.32606779 57.7229982 -24.62369821 46.63013568 -29 34 C-31.57646405 25.8304619 -32.94677558 17.58243788 -33 9 C-31.14544263 7.14544263 -27.99855086 7.47312494 -25.5 7.1875 C-16.92928178 6.0255168 -8.09954246 -0.95288735 0 0 Z " fill="#C50000" transform="translate(35,0)"/>
</svg>
